<?xml version="1.0" standalone="no"?>
<!DOCTYPE svg PUBLIC "-//W3C//DTD SVG 20010904//EN"
 "http://www.w3.org/TR/2001/REC-SVG-20010904/DTD/svg10.dtd">
<svg version="1.0" xmlns="http://www.w3.org/2000/svg"
 width="200.000000pt" height="200.000000pt" viewBox="0 0 200.000000 200.000000"
 preserveAspectRatio="xMidYMid meet">
<metadata>
Created by potrace 1.14, written by Peter Selinger 2001-2017
</metadata>
<g transform="translate(0.000000,200.000000) scale(0.100000,-0.100000)"
fill="#000000" stroke="none">
<path d="M0 1000 l0 -1000 1000 0 1000 0 0 1000 0 1000 -1000 0 -1000 0 0
-1000z m460 799 c25 -11 56 -30 68 -42 25 -23 66 -96 59 -103 -3 -3 -73 0
-156 7 -83 7 -154 10 -157 6 -5 -4 -53 -245 -54 -266 0 -16 -47 43 -66 84 -41
86 -24 195 39 264 61 66 182 89 267 50z m798 -128 c65 -56 70 -59 157 -74 88
-16 267 -68 293 -86 11 -7 10 -28 -9 -120 -12 -61 -25 -111 -30 -111 -4 0 -49
11 -100 25 -90 24 -255 58 -334 69 l-41 6 -114 -126 c-63 -69 -122 -134 -130
-145 -14 -17 -20 -14 -105 65 l-90 84 29 31 c26 27 28 31 10 32 -10 0 -42 4
-70 8 l-52 7 -64 -105 c-36 -58 -76 -124 -88 -145 l-24 -39 50 6 c27 4 80 2
117 -2 79 -11 126 -41 157 -101 43 -84 53 -397 16 -485 -21 -50 -59 -91 -111
-118 -33 -18 -61 -22 -165 -25 -116 -3 -128 -2 -170 20 -37 20 -51 37 -80 93
l-35 68 1 166 c0 133 5 180 21 239 l20 73 -45 39 c-31 28 -42 45 -38 56 4 9
42 76 86 149 44 73 80 135 80 138 0 3 -36 8 -80 12 -68 6 -80 10 -76 24 3 9
12 59 21 111 26 157 15 142 98 135 129 -12 431 -46 455 -52 20 -5 23 -10 18
-37 -2 -17 -8 -76 -12 -131 l-7 -99 43 49 c49 58 323 354 328 354 2 1 34 -25
70 -58z m215 -488 l198 -16 -6 -81 c-3 -45 -8 -100 -11 -123 l-5 -43 -90 7
-89 6 0 -24 c0 -13 7 -85 15 -159 8 -74 15 -138 15 -142 0 -4 46 -9 103 -10
l102 -3 12 -120 c6 -66 10 -121 9 -123 -2 -1 -133 -7 -292 -13 -159 -5 -326
-13 -371 -17 l-81 -8 -6 36 c-3 19 -8 76 -12 126 l-7 92 109 6 c60 4 124 9
141 12 32 5 32 6 27 47 -3 23 -11 102 -18 175 -8 73 -16 135 -19 138 -3 3 -40
8 -84 11 -43 2 -83 6 -89 8 -11 3 -5 59 22 214 l5 34 112 -6 c62 -4 201 -14
310 -24z"/>
<path d="M523 843 c-20 -14 -38 -172 -27 -239 7 -49 14 -61 37 -74 24 -13 30
-13 54 0 17 9 30 28 36 50 12 45 5 236 -9 250 -14 14 -76 23 -91 13z"/>
</g>
</svg>
